<svg width="18" height="18" viewBox="0 0 18 18" fill="none" xmlns="http://www.w3.org/2000/svg">
<path opacity="0.63" d="M8.93515 0C4.36562 0 4.65094 1.99197 4.65094 1.99197L4.65601 4.05572H9.01663V4.67531H2.92404C2.92404 4.67531 0 4.34196 0 8.97667C0 13.6115 2.55217 13.4472 2.55217 13.4472H4.0753V11.2964C4.0753 11.2964 3.99319 8.73089 6.58674 8.73089H10.9117C10.9117 8.73089 13.3416 8.77035 13.3416 6.37021V2.40171C13.3416 2.40171 13.7106 0 8.93515 0ZM6.53071 1.38783C6.63375 1.38773 6.7358 1.40807 6.83102 1.44766C6.92624 1.48726 7.01275 1.54534 7.08562 1.61859C7.15848 1.69183 7.21626 1.7788 7.25565 1.87452C7.29504 1.97023 7.31527 2.07282 7.31518 2.1764C7.31527 2.27998 7.29504 2.38257 7.25565 2.47828C7.21626 2.574 7.15848 2.66097 7.08562 2.73421C7.01275 2.80745 6.92624 2.86554 6.83102 2.90513C6.7358 2.94473 6.63375 2.96506 6.53071 2.96497C6.42766 2.96506 6.32561 2.94473 6.23039 2.90513C6.13517 2.86554 6.04866 2.80745 5.97579 2.73421C5.90293 2.66097 5.84515 2.574 5.80576 2.47828C5.76637 2.38257 5.74614 2.27998 5.74623 2.1764C5.74614 2.07282 5.76637 1.97023 5.80576 1.87452C5.84515 1.7788 5.90293 1.69183 5.97579 1.61859C6.04866 1.54534 6.13517 1.48726 6.23039 1.44766C6.32561 1.40807 6.42766 1.38773 6.53071 1.38783Z" fill="white" fill-opacity="0.63"/>
<path opacity="0.63" d="M9.06491 17.9987C13.6344 17.9987 13.3491 16.0067 13.3491 16.0067L13.344 13.943H8.98336V13.3234H15.0759C15.0759 13.3234 18 13.6568 18 9.02192C18 4.38713 15.4478 4.5515 15.4478 4.5515H13.9247V6.70219C13.9247 6.70219 14.0068 9.2677 11.4132 9.2677H7.08829C7.08829 9.2677 4.6584 9.22824 4.6584 11.6285V15.597C4.6584 15.597 4.28943 17.9987 9.06484 17.9987H9.06491ZM11.4693 16.611C11.3663 16.6111 11.2643 16.5908 11.169 16.5512C11.0738 16.5116 10.9873 16.4535 10.9144 16.3802C10.8416 16.307 10.7838 16.22 10.7444 16.1243C10.705 16.0286 10.6848 15.926 10.6849 15.8224C10.6848 15.7188 10.705 15.6162 10.7444 15.5205C10.7838 15.4248 10.8415 15.3378 10.9144 15.2646C10.9873 15.1913 11.0738 15.1332 11.169 15.0936C11.2642 15.054 11.3663 15.0337 11.4693 15.0338C11.5724 15.0337 11.6744 15.054 11.7697 15.0936C11.8649 15.1332 11.9514 15.1913 12.0243 15.2645C12.0971 15.3378 12.1549 15.4247 12.1943 15.5205C12.2337 15.6162 12.2539 15.7188 12.2538 15.8223C12.2539 15.9259 12.2337 16.0285 12.1943 16.1242C12.1549 16.2199 12.0971 16.3069 12.0243 16.3802C11.9514 16.4534 11.8649 16.5115 11.7697 16.5511C11.6744 16.5907 11.5724 16.611 11.4693 16.6109V16.611Z" fill="white" fill-opacity="0.63"/>
</svg>
