<svg width="20" height="18" viewBox="0 0 20 18" fill="none" xmlns="http://www.w3.org/2000/svg">
<g opacity="0.64">
<path d="M10.0005 7.96875C10.6495 7.96898 11.1226 8.45968 11.1226 9.00098C11.1226 9.54227 10.6495 10.033 10.0005 10.0332C9.35126 10.0332 8.87744 9.5424 8.87744 9.00098C8.87745 8.45955 9.35127 7.96875 10.0005 7.96875Z" stroke="white" stroke-width="1.10978"/>
<path opacity="0.63" d="M10 12.2525C14.9706 12.2525 19 10.7969 19 9.00125C19 7.20564 14.9706 5.75 10 5.75C5.02944 5.75 1 7.20564 1 9.00125C1 10.7969 5.02944 12.2525 10 12.2525Z" stroke="white" stroke-width="1.10978"/>
<path opacity="0.63" d="M7.024 10.6256C9.50928 14.6984 12.8564 17.2722 14.5 16.3744C16.1436 15.4766 15.4612 11.4471 12.976 7.37437C10.4907 3.30162 7.14356 0.727818 5.49997 1.62563C3.85639 2.52344 4.53871 6.55287 7.024 10.6256Z" stroke="white" stroke-width="1.10978"/>
<path d="M7.024 7.37312C4.53872 11.4459 3.85639 15.4753 5.49997 16.3731C7.14356 17.2709 10.4907 14.6971 12.976 10.6244C15.4612 6.55162 16.1436 2.52218 14.5 1.62437C12.8564 0.726563 9.50928 3.30036 7.024 7.37312Z" stroke="white" stroke-opacity="0.63" stroke-width="1.10978"/>
</g>
</svg>
