<svg width="14" height="20" viewBox="0 0 14 20" fill="none" xmlns="http://www.w3.org/2000/svg">
<path fill-rule="evenodd" clip-rule="evenodd" d="M4.23529 7.73469C3.03326 7.73469 2.05882 8.74891 2.05882 10C2.05882 11.2511 3.03326 12.2653 4.23529 12.2653H6.47059V10V7.73469H4.23529ZM9.70588 6.63265L9.76471 6.63265C10.9667 6.63265 11.9412 5.61844 11.9412 4.36735C11.9412 3.11625 10.9667 2.10204 9.76471 2.10204H7.52941V6.63265L9.70588 6.63265ZM11.5389 7.18367C12.4189 6.58187 13 5.54524 13 4.36735C13 2.50761 11.5515 1 9.76471 1H7.52941H7H6.47059H4.23529C2.44849 1 1 2.50761 1 4.36735C1 5.54524 1.58106 6.58187 2.46112 7.18367C1.58106 7.78548 1 8.82211 1 10C1 11.1779 1.58106 12.2145 2.46112 12.8163C1.58106 13.4181 1 14.4548 1 15.6327C1 17.4962 2.46684 19 4.24992 19C6.04925 19 7.52941 17.4825 7.52941 15.602V13.3673V12.8163V12.4915C8.10409 13.0356 8.86777 13.3673 9.70588 13.3673H9.76471C11.5515 13.3673 13 11.8597 13 10C13 8.82211 12.4189 7.78548 11.5389 7.18367ZM9.76471 7.73469L9.70588 7.73469C8.50385 7.73469 7.52941 8.74891 7.52941 10C7.52941 11.2511 8.50385 12.2653 9.70588 12.2653H9.76471C10.9667 12.2653 11.9412 11.2511 11.9412 10C11.9412 8.74891 10.9667 7.73469 9.76471 7.73469ZM2.05882 15.6327C2.05882 14.3816 3.03326 13.3673 4.23529 13.3673H6.47059V15.602C6.47059 16.8662 5.47192 17.898 4.24992 17.898C3.04417 17.898 2.05882 16.8799 2.05882 15.6327ZM6.47059 6.63265H4.23529C3.03326 6.63265 2.05882 5.61844 2.05882 4.36735C2.05882 3.11625 3.03326 2.10204 4.23529 2.10204H6.47059V6.63265Z" stroke="white" stroke-opacity="0.63" stroke-width="0.5"/>
</svg>
