<svg width="21" height="20" viewBox="0 0 21 20" fill="none" xmlns="http://www.w3.org/2000/svg">
<path opacity="0.94" d="M10.5 19.3458L14.3667 7.44531H6.63318L10.4999 19.3458H10.5Z" fill="white" fill-opacity="0.64"/>
<path d="M10.4999 19.3458L6.63314 7.44531H1.21411L10.4999 19.3458Z" fill="white" fill-opacity="0.5"/>
<path opacity="0.91" d="M1.21421 7.44531L0.0391891 11.0618C-0.013056 11.2226 -0.0130632 11.3958 0.0391685 11.5566C0.0914001 11.7174 0.193189 11.8575 0.329948 11.9568L10.5 19.3459L1.21413 7.4454L1.21421 7.44531Z" fill="white" fill-opacity="0.64"/>
<path opacity="0.91" d="M1.21411 7.44419H6.63314L4.30435 0.276589C4.1845 -0.0922373 3.66274 -0.0921552 3.54298 0.276589L1.21411 7.44419Z" fill="white" fill-opacity="0.64"/>
<path d="M10.5 19.3458L14.3667 7.44531H19.7858L10.4999 19.3458H10.5Z" fill="white" fill-opacity="0.5"/>
<path opacity="0.91" d="M19.7858 7.44531L20.9608 11.0618C21.0131 11.2226 21.0131 11.3958 20.9608 11.5566C20.9086 11.7174 20.8068 11.8575 20.67 11.9568L10.5 19.3459L19.7858 7.4454V7.44531Z" fill="white" fill-opacity="0.64"/>
<path opacity="0.91" d="M19.7859 7.44419H14.3668L16.6957 0.276589C16.8155 -0.0922373 17.3373 -0.0921552 17.4571 0.276589L19.7859 7.44419Z" fill="white" fill-opacity="0.64"/>
</svg>
